<svg xmlns="http://www.w3.org/2000/svg" width="17" height="20" fill="none"><path fill="#000" fill-rule="evenodd" d="M12.65 0c.133 1.184-.335 2.35-1.025 3.208v.009c-.716.84-1.864 1.484-2.978 1.405-.141-1.14.416-2.35 1.052-3.093C10.415.689 11.66.044 12.65 0Zm3.647 6.827c-.191.118-2.18 1.348-2.154 3.81l-.009-.008c.027 3.023 2.652 4.03 2.687 4.039-.018.07-.415 1.45-1.396 2.846-.822 1.237-1.68 2.43-3.05 2.457-.645.013-1.08-.174-1.532-.368-.477-.205-.975-.419-1.764-.419-.825 0-1.345.219-1.846.43-.433.182-.852.359-1.442.383-1.299.053-2.297-1.308-3.146-2.527C.94 14.986-.386 10.46 1.39 7.386c.857-1.512 2.43-2.484 4.11-2.51.738-.015 1.454.272 2.079.523.474.19.896.36 1.235.36.306 0 .718-.162 1.198-.352.757-.299 1.683-.664 2.629-.567.645.018 2.483.248 3.667 1.98l-.01.007Z" clip-rule="evenodd"/></svg>