<svg xmlns="http://www.w3.org/2000/svg" width="20" height="21" fill="none" viewBox="0 0 20 21"><path fill="currentColor" d="M18.942 16.347a7.94 7.94 0 0 0 .866-5.705c-.541-2.474-2.316-4.531-4.608-5.514C13.75 1.73 10.092-.22 6.4.464 3.35 1.038.85 3.462.192 6.494a7.94 7.94 0 0 0 .867 5.705l-.892 2.232c-.183.45-.075.966.267 1.308.233.233.541.358.858.358.15 0 .308-.025.45-.083l2.233-.891c.267.15.567.3.834.424.991 2.282 3.033 4.048 5.508 4.59a8.343 8.343 0 0 0 1.75.191c1.392 0 2.75-.358 3.958-1.058l2.234.892a1.21 1.21 0 0 0 1.575-1.575l-.892-2.232v-.008Zm-15.15-2.599-2.275.908.908-2.274a.657.657 0 0 0-.058-.608c-.942-1.482-1.25-3.256-.875-5.005.55-2.516 2.625-4.531 5.158-4.998a6.665 6.665 0 0 1 6.758 2.816c-2.583-.417-5.1.366-6.933 2.207-1.841 1.84-2.633 4.372-2.2 6.971a.69.69 0 0 0-.483-.017Zm13.85 2.174a.683.683 0 0 0-.058.608l.908 2.274-2.275-.908a.658.658 0 0 0-.608.058 6.656 6.656 0 0 1-5 .875c-2.517-.55-4.534-2.624-5-5.156-.417-2.207.25-4.372 1.808-5.938 1.567-1.566 3.725-2.224 5.941-1.808 2.534.475 4.609 2.482 5.159 4.998a6.594 6.594 0 0 1-.875 5.005v-.008Zm-4.308-3.531c0 .691-.559 1.249-1.25 1.249-.692 0-1.25-.558-1.25-1.25 0-.69.558-1.249 1.25-1.249.691 0 1.25.558 1.25 1.25Zm-3.334 0c0 .691-.558 1.249-1.25 1.249-.691 0-1.25-.558-1.25-1.25 0-.69.559-1.249 1.25-1.249.692 0 1.25.558 1.25 1.25Zm6.667 0c0 .691-.559 1.249-1.25 1.249-.692 0-1.25-.558-1.25-1.25 0-.69.558-1.249 1.25-1.249.691 0 1.25.558 1.25 1.25Z"/></svg>