<svg xmlns="http://www.w3.org/2000/svg" width="24" height="24" fill="none"><path fill="#fff" d="M12.027 20.848a.669.669 0 0 1-.666-.667v-2.409c0-.366.3-.666.666-.666.367 0 .667.3.667.666v2.409c0 .367-.3.667-.667.667Zm-4.258-1.2.625-2.325a.667.667 0 1 0-1.292-.342l-.625 2.325a.667.667 0 0 0 .475.817.668.668 0 0 0 .817-.467v-.008Zm-4.475-1.884 1.2-2.083a.666.666 0 0 0-.242-.908.666.666 0 0 0-.908.241l-1.209 2.092a.666.666 0 0 0 .575 1 .645.645 0 0 0 .575-.334l.009-.008Zm13.808 2.35a.667.667 0 0 0 .475-.816l-.625-2.325a.667.667 0 1 0-1.292.342l.626 2.324c.083.3.35.492.641.492.059 0 .117 0 .175-.025v.008Zm4.567-2.108a.666.666 0 0 0 .242-.909l-1.2-2.083a.666.666 0 0 0-.909-.241.666.666 0 0 0-.241.908l1.2 2.083a.664.664 0 0 0 .908.242Zm.1-6.675a.669.669 0 0 0 0-.942.669.669 0 0 0-.942 0c-2.491 2.483-5.641 3.85-8.883 3.85-3.242 0-6.325-1.342-8.809-3.775a.669.669 0 0 0-.941 0 .669.669 0 0 0 0 .942c2.725 2.683 6.183 4.158 9.742 4.158 3.558 0 7.083-1.508 9.825-4.242l.008.009Z"/></svg>