<svg xmlns="http://www.w3.org/2000/svg" width="16" height="16" fill="none"><path fill="#000" d="M15.2 6.7h-1.55c-.15-.64-.4-1.23-.74-1.77l1.1-1.1c.31-.31.31-.82 0-1.13l-.71-.71a.803.803 0 0 0-1.13 0l-1.1 1.1c-.54-.34-1.13-.59-1.77-.74V.8c0-.44-.36-.8-.8-.8h-1c-.44 0-.8.36-.8.8v1.55c-.64.15-1.23.4-1.77.74l-1.1-1.1a.803.803 0 0 0-1.13 0l-.71.71c-.31.31-.31.82 0 1.13l1.1 1.1c-.34.54-.59 1.13-.74 1.77H.8c-.44 0-.8.36-.8.8v1c0 .44.36.8.8.8h1.55c.15.64.4 1.23.74 1.77l-1.1 1.1c-.31.31-.31.82 0 1.13l.71.71c.31.31.82.31 1.13 0l1.1-1.1c.54.34 1.13.59 1.77.74v1.55c0 .44.36.8.8.8h1c.44 0 .8-.36.8-.8v-1.55c.64-.15 1.23-.4 1.77-.74l1.1 1.1c.31.31.82.31 1.13 0l.71-.71c.31-.31.31-.82 0-1.13l-1.1-1.1c.34-.54.59-1.13.74-1.77h1.55c.44 0 .8-.36.8-.8v-1c0-.44-.36-.8-.8-.8ZM8 12.2a4.2 4.2 0 1 1-.001-8.399A4.2 4.2 0 0 1 8 12.2Z"/></svg>