<svg xmlns="http://www.w3.org/2000/svg" width="20" height="20" fill="none"><path fill="#000" d="M16.833 9H3.167A3.165 3.165 0 0 1 0 5.833V.667C0 .3.3 0 .667 0c.366 0 .666.3.666.667v5.166c0 1.009.825 1.834 1.834 1.834h13.666a1.839 1.839 0 0 0 1.834-1.834V.667c0-.367.3-.667.666-.667.367 0 .667.3.667.667v5.166A3.165 3.165 0 0 1 16.833 9ZM20 19.333v-5.166A3.165 3.165 0 0 0 16.833 11H3.167A3.165 3.165 0 0 0 0 14.167v5.166C0 19.7.3 20 .667 20c.366 0 .666-.3.666-.667v-5.166c0-1.009.825-1.834 1.834-1.834h13.666c1.009 0 1.834.825 1.834 1.834v5.166c0 .367.3.667.666.667.367 0 .667-.3.667-.667Zm-3.333-17c0-.366-.3-.666-.667-.666H4c-.367 0-.667.3-.667.666 0 .367.3.667.667.667h12c.367 0 .667-.3.667-.667ZM10 4.833c0-.366-.3-.666-.667-.666H4c-.367 0-.667.3-.667.666 0 .367.3.667.667.667h5.333c.367 0 .667-.3.667-.667Zm-5.417 12c.692 0 1.25-.558 1.25-1.25 0-.691-.558-1.25-1.25-1.25-.691 0-1.25.559-1.25 1.25 0 .692.559 1.25 1.25 1.25Zm12.025 2.2-2.258-4.516a.666.666 0 0 0-1.192 0l-1.308 2.616a.666.666 0 0 1-1.192 0l-.475-.95a.666.666 0 0 0-1.191 0l-1.425 2.85c-.225.442.1.967.591.967h7.85a.665.665 0 0 0 .592-.967h.008Z"/></svg>