<svg xmlns="http://www.w3.org/2000/svg" width="22" height="23" fill="none" viewBox="0 0 22 23"><path fill="#000" d="M19.427 2.252c.32 0 .63.17.82.45.13.19.25.51.09.92l-6.718 16.8c-.22.54-.66.63-.91.63-.14 0-.829-.04-.989-.8l-1.34-6.71-.21-1.05-1.049-.21-6.707-1.34c-.66-.13-.77-.66-.8-.88-.02-.22 0-.77.62-1.01l16.793-6.72c.13-.05.26-.08.38-.08m0-1.6c-.32 0-.65.06-.98.19L1.634 7.562c-2.399.96-2.079 4.45.45 4.95l6.707 1.34 1.34 6.71c.27 1.36 1.41 2.09 2.559 2.09.98 0 1.959-.53 2.399-1.63l6.717-16.8c.72-1.79-.67-3.56-2.4-3.56v-.01Z"/></svg>