<svg xmlns="http://www.w3.org/2000/svg" width="18" height="20" fill="none"><path fill="#EA4335" d="M8.394 9.555.117 18.337A2.243 2.243 0 0 0 2.277 20c.413 0 .801-.109 1.135-.31l.024-.016 9.31-5.37-4.36-4.75h.008Z"/><path fill="#FBBC04" d="M16.783 8.058h-.007l-4.018-2.34-4.531 4.034 4.546 4.547 4.003-2.308c.699-.381 1.173-1.12 1.173-1.967a2.21 2.21 0 0 0-1.166-1.958v-.008Z"/><path fill="#4285F4" d="M.125 1.664a2.333 2.333 0 0 0-.078.575v15.51c0 .201.023.388.078.574L8.68 9.768.125 1.664Z"/><path fill="#34A853" d="m8.456 9.995 4.283-4.283L3.436.32A2.245 2.245 0 0 0 .117 1.656l8.34 8.339Z"/></svg>