<svg xmlns="http://www.w3.org/2000/svg" width="16" height="23" fill="none" viewBox="0 0 16 23"><g filter="url(#a)"><path fill="url(#b)" d="M13.87 7.952s.8 1.71.19 3.34c-.23.62-.69 1.1-1.33 1.1-.08 0-.17 0-.25-.02-.73-.14-1.23-.84-1.08-1.58.9-4.44.21-7.81-4.6-9.8 1.62 1.47 1.8 3.59 1.6 4.87-.17 1.1-.85 1.79-1.67 1.79s-1.28-.47-1.43-1.29c-.08-.44.03-1.31.03-1.31-1.52 1.72-1.89 3.32-1.05 6.86.17.73-.19 1.59-.92 1.73-.08.02-.17.02-.25.02-.64 0-1.15-.47-1.33-1.1-.53-1.93.19-3.42.19-3.42C.59 10.802 0 12.982 0 14.992c0 4.42 3.58 8 8 8s8-3.58 8-8c0-2.19-.39-4.56-2.14-7.05l.01.01Z"/></g><defs><linearGradient id="b" x1="7.082" x2="7.082" y1="22.455" y2="5.07" gradientUnits="userSpaceOnUse"><stop stop-color="#FF033F"/><stop offset="1" stop-color="#F92"/></linearGradient><filter id="a" width="16" height="25" x="0" y=".992" color-interpolation-filters="sRGB" filterUnits="userSpaceOnUse"><feFlood flood-opacity="0" result="BackgroundImageFix"/><feBlend in="SourceGraphic" in2="BackgroundImageFix" result="shape"/><feColorMatrix in="SourceAlpha" result="hardAlpha" values="0 0 0 0 0 0 0 0 0 0 0 0 0 0 0 0 0 0 127 0"/><feOffset dy="3"/><feGaussianBlur stdDeviation="2"/><feComposite in2="hardAlpha" k2="-1" k3="1" operator="arithmetic"/><feColorMatrix values="0 0 0 0 0.926333 0 0 0 0 1 0 0 0 0 0.0791667 0 0 0 0.55 0"/><feBlend in2="shape" result="effect1_innerShadow_3647_43806"/></filter></defs></svg>