<svg xmlns="http://www.w3.org/2000/svg" width="17" height="23" fill="none" viewBox="0 0 17 23"><path fill="#000" d="M14.504 7.952s.818 1.71.194 3.34c-.235.62-.706 1.1-1.36 1.1-.082 0-.174 0-.256-.02-.747-.14-1.258-.84-1.105-1.58.92-4.44.215-7.81-4.704-9.8 1.657 1.47 1.84 3.59 1.636 4.87-.174 1.1-.87 1.79-1.708 1.79s-1.309-.47-1.462-1.29c-.082-.44.03-1.31.03-1.31-1.554 1.72-1.932 3.32-1.073 6.86.174.73-.195 1.59-.941 1.73-.082.02-.174.02-.256.02-.655 0-1.176-.47-1.36-1.1-.542-1.93.194-3.42.194-3.42-1.411 1.66-2.015 3.84-2.015 5.85 0 4.42 3.662 8 8.182 8 4.52 0 8.182-3.58 8.182-8 0-2.19-.399-4.56-2.189-7.05l.01.01Z"/></svg>