<svg xmlns="http://www.w3.org/2000/svg" width="24" height="24" fill="none"><path fill="currentColor" d="M23.2 12.8c.44 0 .8-.36.8-.8V2.8C24 1.26 22.75 0 21.2 0H2.8C1.25 0 0 1.26 0 2.8v18.4C0 22.74 1.25 24 2.8 24h18.3c.98 0 1.87-.5 2.38-1.33.51-.83.56-1.85.12-2.73l-3.14-6.28a2.279 2.279 0 0 0-2.03-1.26c-.86 0-1.64.48-2.03 1.26l-1.79 3.59a.66.66 0 0 1-.6.37.66.66 0 0 1-.6-.37l-.32-.64a2.279 2.279 0 0 0-2.03-1.26c-.86 0-1.64.48-2.03 1.26l-2.89 5.78H2.8c-.66 0-1.2-.54-1.2-1.2V2.8c0-.66.54-1.2 1.2-1.2h18.4c.66 0 1.2.54 1.2 1.2V12c0 .44.36.8.8.8Zm-12.74 4.54a.66.66 0 0 1 .6-.37c.13 0 .43.04.6.37l.32.64a2.267 2.267 0 0 0 4.06 0l1.79-3.59a.66.66 0 0 1 .6-.37c.13 0 .43.04.6.37l3.14 6.28c.19.38.17.81-.05 1.17-.22.36-.59.57-1.02.57H7.93l2.53-5.06v-.01ZM7.49 4c1.93 0 3.5 1.57 3.5 3.5S9.42 11 7.49 11s-3.5-1.57-3.5-3.5S5.56 4 7.49 4Z"/></svg>
