<svg xmlns="http://www.w3.org/2000/svg" width="20" height="20" fill="none"><path fill="#000" d="M10 0C4.48 0 0 4.48 0 10s4.48 10 10 10 10-4.48 10-10S15.52 0 10 0Zm1.63 13.75-1.77 1.77c-.72.72-1.67 1.11-2.69 1.11s-1.97-.4-2.69-1.11a3.802 3.802 0 0 1 0-5.37l.71-.71c.31-.31.82-.31 1.13 0 .31.31.31.82 0 1.13l-.71.71c-.86.86-.86 2.25 0 3.11.83.83 2.28.83 3.11 0l1.77-1.77c.86-.86.86-2.25 0-3.11a.803.803 0 0 1 0-1.13c.31-.31.82-.31 1.13 0a3.802 3.802 0 0 1 0 5.37h.01Zm3.89-3.89-.71.71c-.31.31-.82.31-1.13 0a.803.803 0 0 1 0-1.13l.71-.71c.42-.42.65-.97.65-1.56 0-.59-.23-1.14-.65-1.56-.86-.86-2.25-.86-3.11 0L9.51 7.38c-.86.86-.86 2.25 0 3.11.31.31.31.82 0 1.13-.16.16-.36.23-.57.23-.21 0-.41-.08-.57-.23a3.802 3.802 0 0 1 0-5.37l1.77-1.77a3.802 3.802 0 0 1 5.37 0c.72.72 1.11 1.67 1.11 2.69s-.4 1.97-1.11 2.69h.01Z"/></svg>