<svg xmlns="http://www.w3.org/2000/svg" width="22" height="21" fill="none" viewBox="0 0 22 21"><path fill="currentColor" d="M14.335.906a6.665 6.665 0 0 0-6.667 6.667c0 1.6.567 3.067 1.509 4.217l-1.05 1.05a2.095 2.095 0 0 0-.917-.225c-.533 0-1.067.2-1.475.608L1.61 17.348a2.082 2.082 0 0 0 1.475 3.558c.533 0 1.067-.2 1.475-.608l4.125-4.125c.65-.65.775-1.617.383-2.392l1.05-1.05a6.632 6.632 0 0 0 4.217 1.509 6.665 6.665 0 0 0 6.667-6.667A6.665 6.665 0 0 0 14.335.906Zm0 12a5.338 5.338 0 0 1-5.333-5.333 5.338 5.338 0 0 1 5.333-5.333 5.338 5.338 0 0 1 5.333 5.333 5.338 5.338 0 0 1-5.333 5.333Z"/></svg>