<svg xmlns="http://www.w3.org/2000/svg" width="24" height="24" fill="none"><path fill="#000" d="M11.31 5.26V2.85c0-.366.301-.666.668-.666.367 0 .667.3.667.667v2.41c0 .366-.3.666-.667.666a.669.669 0 0 1-.667-.667Zm4.778 1.268a.668.668 0 0 0 .817-.467l.626-2.327a.667.667 0 1 0-1.292-.341l-.626 2.326a.667.667 0 0 0 .476.817v-.008Zm3.67 1.734a.693.693 0 0 0 .333.092.645.645 0 0 0 .575-.334l1.2-2.084a.667.667 0 0 0-.241-.91.666.666 0 0 0-.909.243l-1.2 2.084a.667.667 0 0 0 .241.909ZM7.05 6.052c.084.3.35.492.642.492.059 0 .117 0 .175-.025a.667.667 0 0 0 .476-.817l-.626-2.326a.667.667 0 1 0-1.292.342l.625 2.326v.008ZM3.29 8.02a.664.664 0 1 0 1.15-.667L3.24 5.27a.666.666 0 0 0-.909-.242.666.666 0 0 0-.242.909l1.2 2.084Zm18.527 4.536a.662.662 0 0 1-.943 0c-1.5-1.468-3.235-2.535-5.077-3.152.567.776.9 1.726.9 2.76a4.726 4.726 0 0 1-4.72 4.72 4.726 4.726 0 0 1-4.718-4.72c0-.992.308-1.91.833-2.676-1.784.642-3.468 1.7-4.919 3.143a.654.654 0 0 1-.475.192.69.69 0 0 1-.475-.192.67.67 0 0 1 0-.942c2.584-2.585 5.836-4.052 9.213-4.21.175-.018.35-.034.534-.034h.083c3.552 0 7.02 1.476 9.747 4.16a.655.655 0 0 1 0 .942l.017.009Zm-6.454-.384c0-1.859-1.5-3.368-3.352-3.385h-.125a3.384 3.384 0 0 0-3.293 3.377c0 1.834 1.517 3.385 3.385 3.385a3.388 3.388 0 0 0 3.385-3.385v.008Z"/></svg>