<svg xmlns="http://www.w3.org/2000/svg" width="24" height="24" fill="none"><path fill="currentColor" d="M7.803 22a4.753 4.753 0 0 1-3.367-8.117l8.392-8.391a3.536 3.536 0 0 1 4.992 0 3.536 3.536 0 0 1 0 4.991l-7.525 7.525a.669.669 0 0 1-.942 0 .669.669 0 0 1 0-.941l7.525-7.525a2.198 2.198 0 0 0-3.108-3.109l-8.392 8.392a3.43 3.43 0 0 0 0 4.842 3.43 3.43 0 0 0 4.842 0l8.392-8.392a4.633 4.633 0 0 0 1.358-3.292 4.648 4.648 0 0 0-1.358-3.291 4.641 4.641 0 0 0-3.292-1.367 4.62 4.62 0 0 0-3.292 1.367L8.27 8.45a.669.669 0 0 1-.942 0 .669.669 0 0 1 0-.942l3.759-3.758A5.937 5.937 0 0 1 15.32 2c1.6 0 3.1.625 4.233 1.75a5.995 5.995 0 0 1 0 8.467l-8.391 8.391A4.744 4.744 0 0 1 7.795 22h.008Z"/></svg>