<svg xmlns="http://www.w3.org/2000/svg" width="21" height="21" fill="none" viewBox="0 0 21 21"><path fill="#fff" d="M16.669 1.539c1.1 0 2 .9 2 2v13.333c0 1.1-.9 2-2 2H3.335c-1.1 0-2-.9-2-2V3.54c0-1.1.9-2 2-2H16.67Zm0-1.333H3.335A3.332 3.332 0 0 0 .002 3.539v13.333a3.332 3.332 0 0 0 3.333 3.334H16.67a3.332 3.332 0 0 0 3.333-3.334V3.54A3.332 3.332 0 0 0 16.669.206Zm-6 14.166v-.333c0-.275-.225-.5-.5-.5h-.334c-.275 0-.5.225-.5.5v.333c0 .275.225.5.5.5h.334c.275 0 .5-.225.5-.5Zm0-8V6.04c0-.275-.225-.5-.5-.5h-.334c-.275 0-.5.225-.5.5v.333c0 .275.225.5.5.5h.334c.275 0 .5-.225.5-.5ZM8.502 9.54c-.275 0-.5.225-.5.5v1.667c0 .275.225.5.5.5h1.667c.275 0 .5-.225.5-.5v-1.667c0-.275-.225-.5-.5-.5H8.502Zm.833-1.833v-.334c0-.275-.225-.5-.5-.5h-.333c-.275 0-.5.225-.5.5v.334c0 .275.225.5.5.5h.333c.275 0 .5-.225.5-.5ZM8.002 9.039v-.333c0-.275-.225-.5-.5-.5h-.333c-.275 0-.5.225-.5.5v.333c0 .275.225.5.5.5h.333c.275 0 .5-.225.5-.5Zm-.833-6.167c-.275 0-.5.225-.5.5v.334c0 .275.225.5.5.5h.833v.833c0 .275.225.5.5.5h.333c.275 0 .5-.225.5-.5V3.372c0-.275-.225-.5-.5-.5H7.17Zm-.5 7.5v-.333c0-.275-.225-.5-.5-.5h-.334c-.275 0-.5.225-.5.5v.333c0 .275.225.5.5.5h.334c.275 0 .5-.225.5-.5ZM5.835 5.54c-.275 0-.5.225-.5.5v1.667c0 .275.225.5.5.5h.334c.275 0 .5-.225.5-.5v-.834h.833c.275 0 .5-.225.5-.5V6.04c0-.275-.225-.5-.5-.5H5.835Zm-2.5 6.667c-.366 0-.666.3-.666.666v4c0 .367.3.667.666.667h4c.367 0 .667-.3.667-.667v-4c0-.366-.3-.666-.667-.666h-4Zm3.334 4H4.002v-2.667h2.667v2.667Zm-2.667-8v-.834c0-.275-.225-.5-.5-.5h-.333c-.275 0-.5.225-.5.5v3c0 .275.225.5.5.5h.333c.275 0 .5-.225.5-.5V9.54h.833c.275 0 .5-.225.5-.5v-.333c0-.275-.225-.5-.5-.5h-.833Zm1.333-3.334V3.54c0-.367-.3-.667-.666-.667H3.335c-.366 0-.666.3-.666.667v1.333c0 .367.3.667.666.667H4.67c.366 0 .666-.3.666-.667Zm6.667 8.167v-.333c0-.275-.225-.5-.5-.5h-.333c-.275 0-.5.225-.5.5v.333c0 .275.225.5.5.5h.333c.275 0 .5-.225.5-.5Zm1.333-1.333v-.334c0-.275-.225-.5-.5-.5h-.333c-.275 0-.5.225-.5.5v.334c0 .275.225.5.5.5h.333c.275 0 .5-.225.5-.5Zm-1.333 4.5v-.834c0-.275-.225-.5-.5-.5h-.333c-.275 0-.5.225-.5.5v.834h-.834c-.275 0-.5.225-.5.5v.333c0 .275.225.5.5.5h3c.275 0 .5-.225.5-.5v-.333c0-.275-.225-.5-.5-.5h-.833Zm0-8v-.834c0-.275-.225-.5-.5-.5h-.333c-.275 0-.5.225-.5.5V9.04c0 .275.225.5.5.5h1.666c.275 0 .5-.225.5-.5v-.333c0-.275-.225-.5-.5-.5h-.833Zm-.833-5.334c-.275 0-.5.225-.5.5V5.04c0 .275.225.5.5.5h.333c.275 0 .5-.225.5-.5v-.833h.833c.275 0 .5-.225.5-.5v-.334c0-.275-.225-.5-.5-.5H11.17Zm3.5 7.5v-.333c0-.275-.225-.5-.5-.5h-.334c-.275 0-.5.225-.5.5v.333c0 .275.225.5.5.5h.334c.275 0 .5-.225.5-.5Zm-1.334 2.334v.833h-.833c-.275 0-.5.225-.5.5v.333c0 .275.225.5.5.5h1.667c.275 0 .5-.225.5-.5v-1.666c0-.275-.225-.5-.5-.5h-.334c-.275 0-.5.225-.5.5Zm-.833-7.167c-.275 0-.5.225-.5.5v.333c0 .275.225.5.5.5h.833v.834c0 .275.225.5.5.5h.334c.275 0 .5-.225.5-.5V6.039c0-.275-.225-.5-.5-.5h-1.667Zm2.667 5.333c-.275 0-.5.225-.5.5v.334c0 .275.225.5.5.5h.833v.833c0 .275.225.5.5.5h.333c.275 0 .5-.225.5-.5v-1.667c0-.275-.225-.5-.5-.5H15.17Zm.166 4c-.366 0-.666.3-.666.667v1.333c0 .367.3.667.666.667h1.334c.366 0 .666-.3.666-.667V15.54c0-.367-.3-.667-.666-.667h-1.334Zm.667-7.5v.834h-.833c-.275 0-.5.225-.5.5v.333c0 .275.225.5.5.5h1.666c.275 0 .5-.225.5-.5V7.372c0-.275-.225-.5-.5-.5h-.333c-.275 0-.5.225-.5.5Zm-.667-4.5c-.366 0-.666.3-.666.667v1.333c0 .367.3.667.666.667h1.334c.366 0 .666-.3.666-.667V3.54c0-.367-.3-.667-.666-.667h-1.334Z"/></svg>