<svg xmlns="http://www.w3.org/2000/svg" width="20" height="20" fill="none"><path fill="currentColor" d="M20 14.758v1.411C20 18.286 18.3 20 16.2 20H3.8C1.7 20 0 18.286 0 16.17v-1.412c0-.443.36-.806.8-.806.44 0 .8.363.8.806v1.411c0 1.22.99 2.218 2.2 2.218h12.4c1.21 0 2.2-.998 2.2-2.218v-1.41c0-.444.36-.807.8-.807.44 0 .8.363.8.806ZM7 6.855h2.2v8.064c0 .444.36.807.8.807.44 0 .8-.363.8-.807V6.855H13a.78.78 0 0 0 .69-.403.827.827 0 0 0 0-.807l-3-5.242s-.03-.02-.04-.04A.777.777 0 0 0 10 0c-.28 0-.51.151-.65.363-.01.02-.03.02-.04.04l-3 5.242a.827.827 0 0 0 0 .807c.14.252.41.403.69.403Z"/></svg>