<svg xmlns="http://www.w3.org/2000/svg" width="24" height="24" fill="none" viewBox="0 0 24 24"><path fill="#000" d="M22.2 18.59h-.1c-.92-.11-1.63-.49-2.11-1.13-.15-.2-.27-.42-.37-.66-.7 1.04-1.73 1.79-3.34 1.79-.95 0-1.83-.38-2.46-1.06-.51-.55-1.1-1.56-.98-3.24.18-2.58 1.98-4.8 4.38-5.39 3.07-.76 4.68 1.36 4.75 1.45a.8.8 0 0 1-.17 1.12c-.36.26-.85.19-1.12-.16-.06-.07-1.09-1.35-3.09-.85-1.73.43-3.03 2.05-3.17 3.95-.06.88.13 1.58.56 2.04.33.35.79.55 1.29.55 1.98 0 2.57-1.81 3.19-4.36.1-.42.53-.71.95-.63.42.09.71.46.64.89-.38 2.23-.09 3.19.22 3.6.13.18.39.43 1.02.5a.8.8 0 0 1 .7.89c-.05.41-.39.71-.79.71v-.01ZM1 18.38h2.52l.82-2.7h4.88l.84 2.7h2.52L8.62 5.42H4.96L1 18.38ZM6.76 7.71l1.75 5.68H5.03l1.73-5.68ZM24 23.2c0-.44-.36-.8-.8-.8H.8c-.44 0-.8.36-.8.8 0 .44.36.8.8.8h22.4c.44 0 .8-.36.8-.8ZM24 .8c0-.44-.36-.8-.8-.8H.8C.36 0 0 .36 0 .8c0 .44.36.8.8.8h22.4c.44 0 .8-.36.8-.8Z"/></svg>