<svg xmlns="http://www.w3.org/2000/svg" width="20" height="21" fill="none"><path fill="#fff" d="M19.627 2.313c-.277-.415-.561-.784-1.084-1.03a3.17 3.17 0 0 0-1.377-.285H2.941c-.354 0-.9 0-1.422.246A2.694 2.694 0 0 0 .357 2.313c-.269.469-.392 1-.346 1.538.047.577.331 1.038.516 1.345L9.362 20.63c.13.223.369.369.63.369a.73.73 0 0 0 .63-.361l8.997-15.44c.246-.431.377-.954.377-1.47 0-.514-.123-.968-.369-1.406v-.008ZM1.58 4.566c-.138-.23-.315-.523-.338-.815a1.412 1.412 0 0 1 .8-1.392c.276-.13.622-.13.9-.13h6.443V18.19L1.58 4.566Zm16.978.015-7.943 13.641V2.236h6.551c.339 0 .608.054.854.17.215.1.346.245.553.553.131.238.193.492.193.761 0 .308-.077.623-.208.854v.007Z"/></svg>