<svg xmlns="http://www.w3.org/2000/svg" width="25" height="24" fill="none" viewBox="0 0 25 24"><path fill="#000" d="M24.002.802v6.273c0 .44-.361.801-.802.801a.804.804 0 0 1-.802-.801v-4.35L6.876 18.259c.09.23.14.471.14.732a2.01 2.01 0 0 1-2.004 2.004 2.01 2.01 0 0 1-2.004-2.004 2.01 2.01 0 0 1 2.004-2.005c.26 0 .501.05.731.14l1.043-1.041a3.434 3.434 0 0 0-1.774-.502 3.41 3.41 0 0 0-3.407 3.408 3.417 3.417 0 0 0 3.407 3.407 3.417 3.417 0 0 0 3.407-3.407c0-.441.36-.802.802-.802.44 0 .801.36.801.802A5.012 5.012 0 0 1 5.012 24a5.019 5.019 0 0 1-5.01-5.01 5.019 5.019 0 0 1 5.01-5.01c1.062 0 2.064.35 2.916.961L21.266 1.603h-4.35a.804.804 0 0 1-.8-.801c0-.441.36-.802.8-.802H23.2a.777.777 0 0 1 .551.22s.01 0 .02.01c0 0 .01.02.02.03.06.07.12.14.15.231.04.1.06.2.06.31ZM1.363 8.708l5.983-5.982v4.108c0 .441.36.802.801.802.441 0 .802-.36.802-.802V.802c0-.1-.02-.21-.06-.311a.915.915 0 0 0-.15-.23S8.73.24 8.72.23c0 0-.01 0-.02-.01A.778.778 0 0 0 8.149 0H2.115c-.441 0-.802.36-.802.802 0 .44.361.801.802.801h4.108L.232 7.586a.804.804 0 0 0 0 1.132c.31.31.822.31 1.132 0v-.01Z"/></svg>