<svg xmlns="http://www.w3.org/2000/svg" width="21" height="20" fill="none"><path fill="#000" d="M10.242 0c-5.52 0-10 4.48-10 10s4.48 10 10 10 10-4.48 10-10-4.48-10-10-10Zm-4.1 13.29a.83.83 0 0 1-.4.11c-.28 0-.55-.14-.69-.4-.53-.91-.8-1.95-.8-3 0-2.74 1.84-5.04 4.35-5.76V2.79c0-.29.15-.55.4-.69.25-.14.55-.14.8 0l3.46 2a.794.794 0 0 1 0 1.38l-3.46 2c-.12.07-.26.11-.4.11s-.28-.04-.4-.11a.794.794 0 0 1-.4-.69v-.86A4.395 4.395 0 0 0 5.852 10c0 .77.2 1.53.59 2.2a.8.8 0 0 1-.29 1.09h-.01Zm5.75 2.47v1.45c0 .29-.15.55-.4.69-.12.07-.26.11-.4.11s-.28-.04-.4-.11l-3.46-2a.794.794 0 0 1 0-1.38l3.46-2c.25-.14.55-.14.8 0s.4.41.4.69v.86a4.395 4.395 0 0 0 2.75-4.07c0-.77-.2-1.53-.59-2.2a.8.8 0 0 1 .29-1.09.8.8 0 0 1 1.09.29c.53.91.8 1.95.8 3 0 2.74-1.84 5.04-4.35 5.76h.01Z"/></svg>