<svg xmlns="http://www.w3.org/2000/svg" width="24" height="24" fill="none"><path fill="#000" d="m13.803 13.466 2.141.05h.042a1.65 1.65 0 0 0 1.534-.992 1.658 1.658 0 0 0-.309-1.833l-2.008-2.126.966-2.758a1.66 1.66 0 0 0-.458-1.8 1.649 1.649 0 0 0-1.842-.267l-2.642 1.25-2.325-1.775a1.663 1.663 0 0 0-1.858-.117c-.6.342-.909.984-.826 1.667l.367 2.9-2.4 1.667a1.653 1.653 0 0 0-.683 1.725c.141.667.65 1.175 1.325 1.3l2.875.542.842 2.8c.2.659.75 1.117 1.433 1.184.059 0 .125.008.184.008.608 0 1.158-.325 1.458-.875l1.033-1.883 3.776 6.534a.664.664 0 1 0 1.15-.667l-3.775-6.534Zm-3.36 1.908a.326.326 0 0 1-.332.175.316.316 0 0 1-.292-.241l-.959-3.192a.671.671 0 0 0-.516-.467l-3.276-.617a.35.35 0 0 1-.275-.266.33.33 0 0 1 .142-.359l2.734-1.9a.656.656 0 0 0 .283-.633l-.425-3.3a.331.331 0 0 1 .167-.342c.033-.017.1-.05.175-.05.058 0 .133.016.2.075l2.65 2.017c.2.15.458.175.692.075l3.008-1.426a.306.306 0 0 1 .375.059c.05.058.167.175.092.366l-1.1 3.142a.67.67 0 0 0 .142.675l2.283 2.426c.142.15.092.308.067.375a.319.319 0 0 1-.325.2l-3.326-.075h-.058c-.033 0-.058 0-.083.008a.483.483 0 0 0-.117.042c-.025.008-.058.017-.083.033-.025.017-.042.034-.059.05-.041.025-.075.059-.108.092-.017.025-.033.041-.05.066-.008.017-.025.026-.033.042l-1.6 2.925.008.025ZM4.71 7.55 3.235 6.89a.68.68 0 0 1-.342-.883c.15-.342.542-.492.884-.342l1.475.659a.68.68 0 0 1 .341.883.653.653 0 0 1-.608.392.654.654 0 0 1-.275-.059v.009Zm6.034-4.41.217-1.566a.661.661 0 0 1 .75-.567c.366.05.616.384.566.75l-.216 1.567a.67.67 0 0 1-.659.575h-.091a.661.661 0 0 1-.567-.75V3.14ZM6.969 13.7a.67.67 0 0 1 .05.942l-1.076 1.2a.653.653 0 0 1-.491.217.67.67 0 0 1-.5-1.117l1.075-1.2c.25-.275.667-.3.942-.05v.008Zm11.659-5.184-1.575.334c-.05.008-.092.016-.142.016a.666.666 0 0 1-.133-1.317l1.575-.333a.666.666 0 0 1 .792.517.662.662 0 0 1-.517.792v-.009Z"/></svg>