<svg xmlns="http://www.w3.org/2000/svg" width="12" height="20" fill="none" viewBox="0 0 12 20"><path fill="#000" d="M9.273 18.667a2.497 2.497 0 0 1-2.5-2.5v-3.209a5.835 5.835 0 0 0 5.167-5.791v-6.5c0-.367-.3-.667-.667-.667H.94C.573 0 .273.3.273.667v6.5c0 3 2.259 5.458 5.167 5.791v3.209c0 1.383-1.117 2.5-2.5 2.5-.367 0-.667.3-.667.666 0 .367.3.667.667.667h6.333c.367 0 .667-.3.667-.667 0-.366-.3-.666-.667-.666Zm-7.666-11.5V1.333h9v5.834c0 2.483-2.017 4.5-4.5 4.5a4.503 4.503 0 0 1-4.5-4.5Z"/><path fill="#CC000C" d="M2.942 7.165V5.632c1-.483 2.175-.475 3.167.033a3.557 3.557 0 0 0 3.167.034v1.466a3.165 3.165 0 0 1-3.167 3.167 3.165 3.165 0 0 1-3.167-3.167Z"/></svg>